#!OML:ASF E:\emotionWalksFemale\Project 1\Capture day 1\Session 1\Female1.ASF
:FULLY-SPECIFIED
:DEGREES
476
root 8.89829 15.4622 1.51854 -180.22 -5.89391 -182.517
lowerback 9.40362 -0.606573 -1.18829
upperback -2.73241 -0.946534 0.252272
thorax -8.15526 -0.39592 1.09047
lowerneck -8.24836 -3.44051 -6.48533
upperneck 12.1394 -4.61708 4.71228
head 5.26477 -2.32815 2.19418
rclavicle -1.51573e-014 -1.31198e-014
rhumerus -56.2791 3.7577 -70.6686
rradius 36.7156
rwrist 23.3882
rhand -5.57802 -53.1116
rfingers 7.12502
rthumb 20.238 -82.0773
lclavicle -1.51573e-014 -1.31198e-014
lhumerus -33.1828 -11.8329 77.9953
lradius 47.3653
lwrist -11.1404
lhand -10.7359 -35.1277
lfingers 7.12502
lthumb 15.2749 -5.71169
rfemur -30.1784 1.6325 19.2079
rtibia 46.6165
rfoot -14.9873 -22.8954
rtoes -4.04315
lfemur 5.09915 -21.5102 -35.1194
ltibia 17.5608
lfoot -16.6703 16.8045
ltoes -24.1455
477
root 8.91864 15.4513 1.28461 -180.251 -6.30077 -182.434
lowerback 9.40948 -0.725981 -1.40431
upperback -2.72744 -1.13193 0.271738
thorax -8.14417 -0.474861 1.26275
lowerneck -8.40632 -3.46195 -6.46256
upperneck 12.4442 -4.67836 4.82216
head 5.3915 -2.35365 2.21659
rclavicle -9.34288e-015 6.36111e-015
rhumerus -57.2586 4.01582 -70.7893
rradius 36.3301
rwrist 22.9883
rhand -4.45318 -53.6762
rfingers 7.12502
rthumb 21.3187 -82.5236
lclavicle -9.34288e-015 6.36111e-015
lhumerus -31.7508 -12.5561 77.1902
lradius 49.0825
lwrist -10.0033
lhand -10.8103 -35.0391
lfingers 7.12502
lthumb 15.2033 -5.61773
rfemur -30.1035 2.86857 18.8897
rtibia 42.4583
rfoot -14.9034 -24.5072
rtoes -3.98967
lfemur 6.70789 -21.6596 -35.2738
ltibia 16.5536
lfoot -16.8457 16.6907
ltoes -23.0453
478
root 8.93817 15.4422 1.04617 -180.22 -6.68691 -182.29
lowerback 9.36832 -0.852638 -1.53956
upperback -2.7363 -1.31271 0.3401
thorax -8.11986 -0.554521 1.43966
lowerneck -8.60139 -3.4707 -6.55671
upperneck 12.6773 -4.70534 4.99444
head 5.50485 -2.36046 2.2802
rclavicle -1.33807e-014 -1.11319e-014
rhumerus -58.2417 4.3301 -70.9007
rradius 36.0527
rwrist 22.5247
rhand -3.48224 -54.0717
rfingers 7.12502
rthumb 22.2511 -82.8108
lclavicle -1.33807e-014 -1.11319e-014
lhumerus -30.3422 -13.2205 76.4179
lradius 50.8158
lwrist -8.63666
lhand -10.8947 -35.0886
lfingers 7.12502
lthumb 15.1219 -5.661
rfemur -29.9671 4.39527 18.4977
rtibia 38.3092
rfoot -14.651 -26.1655
rtoes -4.15881
lfemur 8.24353 -21.7218 -35.307
ltibia 15.5241
lfoot -16.9705 16.4636
ltoes -21.7934
479
root 8.95753 15.431 0.806692 -180.174 -7.02869 -182.131
lowerback 9.29041 -0.964394 -1.65178
upperback -2.72558 -1.46825 0.426852
thorax -8.05288 -0.623282 1.61747
lowerneck -8.93279 -3.53862 -6.49746
upperneck 12.923 -4.78073 4.88863
head 5.63876 -2.39761 2.22531
rclavicle 3.32964e-015 1.98785e-015
rhumerus -59.1153 4.62169 -70.9641
rradius 35.7437
rwrist 22.324
rhand -2.98042 -54.3202
rfingers 7.12502
rthumb 22.7328 -83.001
lclavicle 3.32964e-015 1.98785e-015
lhumerus -29.1097 -13.9687 75.6135
lradius 52.7977
lwrist -7.2168
lhand -10.9635 -34.8652
lfingers 7.12502
lthumb 15.0557 -5.43266
rfemur -29.7747 6.39014 17.945
rtibia 34.3847
rfoot -15.1847 -27.7202
rtoes -1.28182
lfemur 9.82551 -21.5313 -35.2642
ltibia 14.3178
lfoot -16.7898 16.1637
ltoes -20.746
480
root 8.97908 15.4165 0.567317 -180.165 -7.34048 -182.102
lowerback 9.30229 -1.06573 -1.90672
upperback -2.75451 -1.63545 0.440032
thorax -8.0776 -0.691217 1.80229
lowerneck -9.30222 -3.59693 -6.35856
upperneck 13.2826 -4.8577 4.74999
head 5.81232 -2.43602 2.14548
rclavicle 1.40516e-014 0
rhumerus -60.0853 5.01433 -71.2234
rradius 35.5069
rwrist 22.393
rhand -2.53879 -54.3654
rfingers 7.12502
rthumb 23.1565 -82.9936
lclavicle 1.40516e-014 0
lhumerus -27.9483 -14.4567 74.6405
lradius 54.7731
lwrist -6.07106
lhand -9.97963 -34.3168
lfingers 7.12502
lthumb 16.0033 -4.95776
rfemur -29.5393 8.69888 17.1049
rtibia 30.8301
rfoot -15.8063 -29.1395
rtoes 1.3136
lfemur 11.4584 -21.0118 -35.28
ltibia 13.0173
lfoot -16.4248 15.7594
ltoes -20.6969
481
root 9.0016 15.3996 0.325956 -180.148 -7.6424 -182.132
lowerback 9.28017 -1.17973 -2.23047
upperback -2.80462 -1.82989 0.432974
thorax -8.10137 -0.769478 2.00817
lowerneck -9.23286 -3.54104 -6.42562
upperneck 13.2977 -4.8193 4.99609
head 5.81015 -2.40693 2.23847
rclavicle 8.31168e-015 0
rhumerus -61.1212 5.56437 -71.6359
rradius 35.3658
rwrist 22.5325
rhand -1.8455 -54.3452
rfingers 7.12502
rthumb 23.8216 -82.8883
lclavicle 8.31168e-015 0
lhumerus -26.6804 -14.6994 73.5923
lradius 56.4506
lwrist -5.16719
lhand -9.04757 -34.1431
lfingers 7.12502
lthumb 16.9006 -4.8585
rfemur -29.3803 11.1532 16.0897
rtibia 27.8224
rfoot -16.2571 -30.679
rtoes 1.29063
lfemur 13.0104 -20.4111 -35.2934
ltibia 11.7626
lfoot -15.9412 15.3066
ltoes -21.7639
482
root 9.02321 15.3817 0.087337 -180.032 -7.92426 -182.128
lowerback 9.10034 -1.27999 -2.44089
upperback -2.85262 -1.99066 0.395669
thorax -8.03576 -0.839897 2.1076
lowerneck -8.9738 -3.48988 -6.51519
upperneck 13.1974 -4.80281 5.31041
head 5.74258 -2.38839 2.35797
rclavicle -3.85145e-014 7.95139e-016
rhumerus -62.0744 6.20322 -72.2803
rradius 35.3737
rwrist 22.042
rhand -1.28434 -54.8135
rfingers 7.12502
rthumb 24.3596 -83.2853
lclavicle -3.85145e-014 7.95139e-016
lhumerus -25.586 -15.2844 72.4917
lradius 58.4411
lwrist -4.15886
lhand -9.82106 -34.1693
lfingers 7.12502
lthumb 16.156 -4.82258
rfemur -29.4723 13.7783 14.9753
rtibia 25.5253
rfoot -17.3572 -32.1102
rtoes 3.14247
lfemur 14.4677 -19.9931 -35.2396
ltibia 10.4659
lfoot -15.4023 14.7528
ltoes -22.7829
483
root 9.04431 15.3623 -0.14751 -179.86 -8.19163 -182.241
lowerback 8.95609 -1.36969 -2.69676
upperback -2.92497 -2.15001 0.285998
thorax -8.0175 -0.908704 2.15684
lowerneck -9.12523 -3.48571 -6.43417
upperneck 13.406 -4.82102 5.34
head 5.83352 -2.39216 2.34975
rclavicle 3.80176e-015 -5.96354e-016
rhumerus -62.9605 6.76412 -73.014
rradius 35.4482
rwrist 21.4465
rhand -0.629322 -55.4111
rfingers 7.12502
rthumb 24.9875 -83.797
lclavicle 3.80176e-015 -5.96354e-016
lhumerus -24.8072 -16.005 71.2848
lradius 60.7509
lwrist -3.09701
lhand -11.0371 -33.9538
lfingers 7.12502
lthumb 14.9848 -4.51591
rfemur -29.6981 15.9814 13.8364
rtibia 23.9114
rfoot -17.524 -33.0402
rtoes 2.25637
lfemur 15.8716 -19.385 -35.2025
ltibia 9.20475
lfoot -14.8918 13.9475
ltoes -24.1311
484
root 9.06551 15.342 -0.387753 -179.739 -8.48035 -182.506
lowerback 8.86419 -1.47227 -3.13265
upperback -2.97489 -2.35198 0.145154
thorax -7.99724 -0.990551 2.28147
lowerneck -9.3098 -3.4204 -6.37519
upperneck 13.5173 -4.74957 5.43275
head 5.89631 -2.34566 2.3727
rclavicle -2.52208e-015 -1.11319e-014
rhumerus -63.7919 7.09937 -73.5401
rradius 35.3875
rwrist 21.548
rhand 0.156649 -55.4877
rfingers 7.12502
rthumb 25.7404 -83.7668
lclavicle -2.52208e-015 -1.11319e-014
lhumerus -24.1508 -16.682 70.0533
lradius 62.9069
lwrist -2.0796
lhand -11.5495 -33.7827
lfingers 7.12502
lthumb 14.4911 -4.30878
rfemur -29.7911 17.2511 12.9518
rtibia 22.8593
rfoot -15.8049 -33.5227
rtoes -2.83415
lfemur 17.2292 -18.7809 -35.312
ltibia 8.27239
lfoot -14.2843 13.3704
ltoes -26.2596
485
root 9.08839 15.3281 -0.633472 -179.644 -8.73037 -182.584
lowerback 8.68416 -1.57113 -3.4372
upperback -3.00772 -2.52167 0.0894123
thorax -7.90891 -1.06267 2.41286
lowerneck -9.42965 -3.39238 -6.53169
upperneck 13.7033 -4.73819 5.69587
head 5.98424 -2.33105 2.4809
rclavicle -2.8128e-014 -7.55382e-015
rhumerus -64.6311 7.49578 -74.0368
rradius 35.2984
rwrist 21.901
rhand 0.609983 -55.2162
rfingers 7.12502
rthumb 26.1745 -83.4317
lclavicle -2.8128e-014 -7.55382e-015
lhumerus -23.2818 -15.9326 69.1086
lradius 64.4105
lwrist -2.29622
lhand -11.3043 -34.072
lfingers 7.12502
lthumb 14.7273 -4.61511
rfemur -29.8091 17.9307 12.6775
rtibia 22.2925
rfoot -16.0172 -33.2891
rtoes -0.554179
lfemur 18.3072 -18.166 -35.1383
ltibia 7.79361
lfoot -13.7644 12.5172
ltoes -26.58
486
root 9.10993 15.3198 -0.879147 -179.548 -8.89439 -182.634
lowerback 8.47758 -1.6495 -3.68636
upperback -3.05634 -2.65522 0.0444555
thorax -7.82509 -1.11981 2.51763
lowerneck -9.43322 -3.41431 -6.73615
upperneck 13.9089 -4.80084 5.94807
head 6.06416 -2.35975 2.58893
rclavicle -1.57164e-014 4.96962e-015
rhumerus -65.3997 8.04533 -74.6614
rradius 35.0291
rwrist 22.3082
rhand 0.549699 -54.6558
rfingers 7.12502
rthumb 26.1168 -82.8799
lclavicle -1.57164e-014 4.96962e-015
lhumerus -22.5614 -15.6013 68.1769
lradius 66.0166
lwrist -2.00282
lhand -11.0647 -33.7103
lfingers 7.12502
lthumb 14.9581 -4.27046
rfemur -29.658 17.8186 12.9382
rtibia 22.0664
rfoot -13.6199 -32.8345
rtoes -5.61853
lfemur 18.9284 -17.4861 -34.8716
ltibia 8.02951
lfoot -13.3893 11.2673
ltoes -24.3503
